<?xml version="1.0" encoding="UTF-8"?>
<svg version="1.1" xmlns="http://www.w3.org/2000/svg" width="1024" height="1024">
<path d="M0 0 C337.92 0 675.84 0 1024 0 C1024 337.92 1024 675.84 1024 1024 C686.08 1024 348.16 1024 0 1024 C0 686.08 0 348.16 0 0 Z " fill="#0C0F14" transform="translate(0,0)"/>
<path d="M0 0 C0.94184647 -0.00708481 1.88369293 -0.01416962 2.8540802 -0.02146912 C4.39389305 -0.01775299 4.39389305 -0.01775299 5.96481323 -0.01396179 C7.59482521 -0.02162819 7.59482521 -0.02162819 9.25776672 -0.02944946 C12.85662317 -0.04336859 16.4552885 -0.04238625 20.0541687 -0.04008484 C22.55798412 -0.04397182 25.06179889 -0.0483065 27.56561279 -0.05307007 C32.81962712 -0.06053825 38.07359202 -0.06037598 43.3276062 -0.05497742 C48.71277042 -0.04961751 54.09774623 -0.05661027 59.48287964 -0.07548523 C65.99088356 -0.09800176 72.49873037 -0.10572873 79.00677109 -0.10181236 C81.48257875 -0.10232443 83.95839022 -0.1075405 86.4341774 -0.11762428 C89.90680864 -0.13002692 93.37890857 -0.12317247 96.85153198 -0.11161804 C97.8659285 -0.11926178 98.88032501 -0.12690552 99.92546082 -0.13478088 C107.36312671 -0.08036704 114.62187344 0.7909621 120.91744995 5.02241516 C121.51686401 5.65792297 122.11627808 6.29343079 122.7338562 6.94819641 C123.66004761 7.88212219 123.66004761 7.88212219 124.60494995 8.83491516 C128.73987487 14.76514235 129.74095401 20.57715812 129.63693237 27.60444641 C129.63737045 28.39565384 129.63780853 29.18686127 129.63825989 30.00204468 C129.63618828 32.58852274 129.61293541 35.17433315 129.58932495 37.76069641 C129.58372318 39.56529893 129.57945583 41.36990604 129.57646179 43.17451477 C129.56505873 47.90265201 129.53563104 52.63050867 129.50234985 57.35853577 C129.47155068 62.19176947 129.45793548 67.02504892 129.44284058 71.85835266 C129.41075658 81.32594309 129.35802615 90.79325242 129.2963562 100.26069641 C124.3463562 100.26069641 119.3963562 100.26069641 114.2963562 100.26069641 C114.2870105 97.88849915 114.27766479 95.51630188 114.26803589 93.07221985 C114.23427799 85.23698242 114.17873586 77.40200871 114.11245346 69.56698227 C114.07293374 64.8162726 114.0407674 60.06574954 114.02536011 55.31489563 C114.010223 50.73054475 113.97583029 46.14670672 113.92804718 41.56258392 C113.91320287 39.81313279 113.90531344 38.06360845 113.90447235 36.31409454 C113.90211003 33.86442299 113.87509194 31.41617727 113.84225464 28.9667511 C113.847285 28.24242386 113.85231537 27.51809662 113.85749817 26.77182007 C113.78725694 23.3881147 113.52847499 21.56477931 111.44973755 18.84156799 C108.33720517 16.55655053 105.81603487 16.13478959 102.0632782 16.10247803 C101.20091049 16.09268921 100.33854279 16.08290039 99.45004272 16.07281494 C98.03555847 16.06418175 98.03555847 16.06418175 96.59249878 16.05537415 C95.5971965 16.04547455 94.60189423 16.03557495 93.57643127 16.02537537 C90.28127433 15.99374696 86.98610296 15.96899755 83.69088745 15.94429016 C81.40830609 15.9237218 79.12572855 15.90272536 76.84315491 15.88131714 C70.83114716 15.82608434 64.81910497 15.77668034 58.80703735 15.72846985 C52.67388844 15.67826368 46.54078964 15.622573 40.40768433 15.56733704 C28.37061774 15.45974066 16.33350768 15.35829893 4.2963562 15.26069641 C4.31206665 16.56216614 4.3277771 17.86363586 4.34396362 19.20454407 C4.3983807 24.04627766 4.43274926 28.88798435 4.46115112 33.72993469 C4.47621089 35.82307994 4.49666291 37.91619377 4.52267456 40.00923157 C4.55918121 43.02281969 4.57611093 46.03598953 4.58932495 49.04975891 C4.60480881 49.98123749 4.62029266 50.91271606 4.63624573 51.87242126 C4.637974 58.58786105 3.37961626 62.71448968 -0.9536438 68.01069641 C-6.67291534 72.6901004 -13.06889207 72.54299218 -20.13723755 72.45600891 C-21.01517471 72.45317902 -21.89311188 72.45034912 -22.7976532 72.44743347 C-25.57896025 72.43631239 -28.35993543 72.41122313 -31.1411438 72.38569641 C-33.03632141 72.37565616 -34.93150412 72.36653215 -36.82669067 72.35835266 C-41.45246797 72.33639956 -46.07799978 72.30192601 -50.7036438 72.26069641 C-50.61982826 93.33112491 -50.52472627 114.40147539 -50.41611671 135.47179127 C-50.36595394 145.25468183 -50.31951149 155.03756385 -50.2817688 164.82051086 C-50.24887027 173.34541723 -50.20905098 181.87025807 -50.16085374 190.39509219 C-50.13556742 194.91064759 -50.11379249 199.42615941 -50.10029984 203.94176674 C-50.08749877 208.18936814 -50.06546568 212.4368202 -50.0362606 216.68433952 C-50.02716948 218.24563104 -50.02149103 219.80694662 -50.01943016 221.36826324 C-50.01611839 223.49560848 -50.00067108 225.62252755 -49.9821167 227.74978638 C-49.97658594 228.94166471 -49.97105518 230.13354303 -49.96535683 231.36153889 C-49.91873378 234.45551239 -49.91873378 234.45551239 -47.7036438 237.26069641 C-44.70889666 238.25894546 -42.63019046 238.41393673 -39.49783325 238.46601868 C-38.43695999 238.4859639 -37.37608673 238.50590912 -36.2830658 238.52645874 C-35.13923935 238.54317123 -33.9954129 238.55988373 -32.81692505 238.57710266 C-31.64477951 238.59788376 -30.47263397 238.61866486 -29.26496887 238.64007568 C-25.51542094 238.70553459 -21.76580217 238.76443937 -18.0161438 238.82319641 C-15.47642289 238.86638509 -12.93670918 238.90999949 -10.39700317 238.95405579 C-4.16595624 239.06121231 2.06516204 239.16249029 8.2963562 239.26069641 C8.2963562 244.21069641 8.2963562 249.16069641 8.2963562 254.26069641 C1.0372558 254.37421809 -6.22134954 254.46570833 -13.48115349 254.51975727 C-16.85318177 254.54571456 -20.22456486 254.58085147 -23.59622192 254.63789368 C-27.48376139 254.69890565 -31.3703985 254.72699081 -35.2583313 254.74897766 C-36.45352386 254.77478409 -37.64871643 254.80059052 -38.88012695 254.82717896 C-46.50889458 254.82970524 -52.37693083 253.71091695 -58.7036438 249.26069641 C-64.30409281 243.39780935 -65.94555044 236.98679137 -65.99125671 228.94932556 C-65.99790452 228.23522188 -66.00455233 227.52111819 -66.01140159 226.785375 C-66.03100947 224.4042257 -66.03646161 222.02326497 -66.04177856 219.64204407 C-66.05267966 217.93001824 -66.06435201 216.21799718 -66.07673645 214.50598145 C-66.10718634 209.86339566 -66.12424543 205.22085935 -66.13695264 200.57819414 C-66.14504709 197.67581848 -66.15522785 194.77345692 -66.16596794 191.87108994 C-66.19866702 182.784577 -66.22257647 173.69809847 -66.2347818 164.61153471 C-66.24904297 154.1321423 -66.29294537 143.6534226 -66.36228329 133.17425311 C-66.41407831 125.06620911 -66.43895588 116.95835642 -66.44360393 108.85014951 C-66.44699995 104.01062435 -66.4618256 99.17178042 -66.50488472 94.33243179 C-66.54468479 89.77996021 -66.55102022 85.22864413 -66.53198433 80.67605019 C-66.53072001 79.00876022 -66.54135786 77.34141063 -66.56499863 75.6742878 C-66.75415696 61.52359051 -66.75415696 61.52359051 -62.39552307 56.45549011 C-61.19521333 55.35650129 -59.96768474 54.28574297 -58.7036438 53.26069641 C-58.00291748 52.52250671 -57.30219116 51.78431702 -56.58023071 51.02375793 C-55.99511719 50.44388123 -55.41000366 49.86400452 -54.80715942 49.26655579 C-54.12955566 48.59225525 -53.4519519 47.91795471 -52.7538147 47.22322083 C-52.0463208 46.52402527 -51.3388269 45.82482971 -50.6098938 45.10444641 C-49.85953857 44.35787781 -49.10918335 43.6113092 -48.33609009 42.84211731 C-45.16147876 39.68368529 -41.98088464 36.53130362 -38.80081177 33.37837219 C-36.46424019 31.05999896 -34.13076381 28.73854121 -31.7973938 26.41694641 C-31.0898999 25.71775085 -30.38240601 25.0185553 -29.6534729 24.298172 C-25.65688409 20.32106599 -21.84847674 16.24166495 -18.17427063 11.96427917 C-16.36048286 9.86317676 -14.46856739 7.85824808 -12.5161438 5.88569641 C-11.88321411 5.23858704 -11.25028442 4.59147766 -10.59817505 3.92475891 C-7.21955559 0.95714677 -4.47601425 0.01125201 0 0 Z " fill="#F43328" transform="translate(142.70364379882813,365.7393035888672)"/>
<path d="M0 0 C10.80348873 8.15541555 17.6786917 18.60735669 20.59765625 31.9609375 C22.15773054 49.78197421 21.13874772 65.03139778 9.75390625 79.49609375 C0.89280001 89.62536555 -10.38998535 96.99295049 -24.07983398 98.19628906 C-42.86169291 99.07641663 -55.68954455 96.6731169 -70.36328125 84.30859375 C-79.97282158 75.39144388 -84.93581088 63.299238 -85.78515625 50.33203125 C-86.41234637 33.43539312 -82.20570668 19.82508723 -71.21484375 6.7734375 C-52.67768797 -12.97266322 -22.05020502 -15.03855709 0 0 Z " fill="#F43328" transform="translate(743.40234375,473.0390625)"/>
<path d="M0 0 C28.38 0 56.76 0 86 0 C86 7.59 86 15.18 86 23 C65.87 23 45.74 23 25 23 C25 34.88 25 46.76 25 59 C43.81 59 62.62 59 82 59 C82 66.92 82 74.84 82 83 C63.19 83 44.38 83 25 83 C25 94.22 25 105.44 25 117 C45.13 117 65.26 117 86 117 C86 124.92 86 132.84 86 141 C57.62 141 29.24 141 0 141 C0 94.47 0 47.94 0 0 Z " fill="#F33228" transform="translate(352,429)"/>
<path d="M0 0 C8.25 0 16.5 0 25 0 C25.62003906 1.68996094 26.24007812 3.37992187 26.87890625 5.12109375 C27.29873779 6.26529785 27.71856934 7.40950195 28.15112305 8.58837891 C29.10558275 11.19049023 30.05872579 13.79307921 31.01098633 16.39599609 C33.66884068 23.65824363 36.33687461 30.91647828 39.02705383 38.16682434 C40.4099978 41.89659212 41.78779694 45.62825026 43.16500854 49.36013794 C43.84623337 51.20219995 44.5297642 53.04341081 45.21560669 54.88375854 C46.18483128 57.4854572 47.14597559 60.0900121 48.10546875 62.6953125 C48.39870026 63.47637863 48.69193176 64.25744476 48.99404907 65.06217957 C50.29201436 68.60951263 51 71.17744215 51 75 C51.66 75 52.32 75 53 75 C53.2165625 73.84886719 53.433125 72.69773437 53.65625 71.51171875 C55.30971687 64.0927979 57.99397712 56.97596558 60.5 49.8125 C61.58193571 46.69748176 62.66028237 43.58122627 63.73828125 40.46484375 C64.01041946 39.679422 64.28255768 38.89400024 64.5629425 38.08477783 C66.40506114 32.75712368 68.20806867 27.41764049 69.98046875 22.06640625 C70.21206696 21.36733658 70.44366516 20.66826691 70.68228149 19.94801331 C71.7810261 16.62673791 72.87478647 13.30387191 73.96484375 9.97973633 C74.3515625 8.80822021 74.73828125 7.6367041 75.13671875 6.4296875 C75.47405029 5.40085449 75.81138184 4.37202148 76.15893555 3.31201172 C77 1 77 1 78 0 C79.85369611 -0.08737645 81.71067541 -0.10698153 83.56640625 -0.09765625 C84.69111328 -0.09443359 85.81582031 -0.09121094 86.97460938 -0.08789062 C88.15861328 -0.07951172 89.34261719 -0.07113281 90.5625 -0.0625 C91.75037109 -0.05798828 92.93824219 -0.05347656 94.16210938 -0.04882812 C97.10812226 -0.03699675 100.05403681 -0.02051287 103 0 C101.61235297 7.66149358 98.98382636 14.69398019 96.15240479 21.91879272 C94.67558343 25.68811602 93.22050027 29.46585473 91.76171875 33.2421875 C91.45415649 34.03660751 91.14659424 34.83102753 90.82971191 35.64952087 C87.6765059 43.80588123 84.61422398 51.9955376 81.55752563 60.18844604 C75.54689852 76.29618711 69.44223299 92.36549527 63.2277832 108.39575195 C60.4815659 115.48770543 57.76525778 122.5827606 55.19921875 129.7421875 C54.58312744 131.44858398 54.58312744 131.44858398 53.95458984 133.18945312 C53.21831159 135.2430997 52.49495966 137.30144928 51.78759766 139.36523438 C51.47226074 140.24244141 51.15692383 141.11964844 50.83203125 142.0234375 C50.57139893 142.77544434 50.3107666 143.52745117 50.04223633 144.30224609 C49 146 49 146 47.19702148 146.74243164 C44.77994262 147.02579848 42.44993077 147.11249958 40.015625 147.09765625 C39.08105469 147.09443359 38.14648438 147.09121094 37.18359375 147.08789062 C36.21550781 147.07951172 35.24742187 147.07113281 34.25 147.0625 C33.26644531 147.05798828 32.28289063 147.05347656 31.26953125 147.04882812 C28.84629209 147.03706483 26.42317727 147.02062684 24 147 C25.05983895 141.25759988 26.66800094 135.85945014 28.63671875 130.3671875 C28.88124786 129.68174866 29.12577698 128.99630981 29.37771606 128.2901001 C30.40364345 125.42484831 31.43483312 122.56181491 32.4855957 119.70556641 C33.25826172 117.59751377 34.01122958 115.48321953 34.76171875 113.3671875 C35.12096687 112.41378983 35.12096687 112.41378983 35.48747253 111.44113159 C38.00598712 104.24430819 36.04485588 98.45599507 33.3671875 91.62890625 C33.09855392 90.92611038 32.82992035 90.22331451 32.55314636 89.4992218 C31.6669037 87.18443852 30.77082234 84.87359075 29.875 82.5625 C29.24840313 80.92953066 28.6226873 79.29622301 27.99780273 77.66259766 C27.01633454 75.0969343 26.03437125 72.53147374 25.04985046 69.96697998 C21.66095919 61.13733944 18.33458063 52.28460937 15.01837158 43.42745972 C14.09326962 40.95716398 13.16668462 38.48742936 12.23974609 36.01782227 C10.7872935 32.14659849 9.34098478 28.27311448 7.89678955 24.39880371 C6.93721167 21.83204879 5.97025976 19.26812835 5.00341797 16.70410156 C4.35491916 14.97208909 3.70663811 13.23999506 3.05859375 11.5078125 C2.75196304 10.69956024 2.44533234 9.89130798 2.12940979 9.05856323 C0 3.34059911 0 3.34059911 0 0 Z " fill="#F33328" transform="translate(767,466)"/>
<path d="M0 0 C8.97827639 6.44472397 13.48590689 14.57037184 15.82165527 25.31115723 C16.76391837 31.77595745 16.49023663 38.3598295 16.4453125 44.87890625 C16.44157605 46.4802991 16.43873207 48.08169425 16.43673706 49.68309021 C16.42915029 53.87027448 16.40954517 58.05731701 16.3873291 62.2444458 C16.36676311 66.52817875 16.35771249 70.8119349 16.34765625 75.09570312 C16.32629392 83.48054061 16.29115299 91.86523627 16.25 100.25 C8.33 100.25 0.41 100.25 -7.75 100.25 C-7.7593457 98.36361816 -7.76869141 96.47723633 -7.77832031 94.53369141 C-7.81399187 88.26706858 -7.86788046 82.0008041 -7.93390274 75.73443031 C-7.97323648 71.93898538 -8.00549328 68.14376755 -8.02099609 64.34814453 C-8.03625676 60.677935 -8.07086536 57.00835041 -8.11830902 53.33842087 C-8.13302677 51.94561605 -8.14103544 50.55272195 -8.14188385 49.15983963 C-8.1527112 40.28870217 -8.2583396 31.2065461 -14.52886963 24.28701782 C-20.38760367 18.84225334 -25.81912839 18.94707867 -33.62109375 19.04296875 C-40.10722804 19.47213868 -43.34263427 22.49974837 -47.453125 27.140625 C-50.44049325 31.99959745 -51.00236099 37.32371681 -51.06884766 42.91967773 C-51.08871735 44.20047714 -51.10858704 45.48127655 -51.12905884 46.80088806 C-51.14093158 48.17845487 -51.15259465 49.55602351 -51.1640625 50.93359375 C-51.18279555 52.35849604 -51.20237052 53.78338749 -51.2227478 55.20826721 C-51.27384969 58.93831967 -51.31359199 62.668408 -51.35089111 66.39862061 C-51.39106924 70.21310135 -51.44209823 74.02743568 -51.4921875 77.84179688 C-51.58868664 85.31110458 -51.67216933 92.78047016 -51.75 100.25 C-59.67 100.25 -67.59 100.25 -75.75 100.25 C-75.75 65.93 -75.75 31.61 -75.75 -3.75 C-67.83 -3.75 -59.91 -3.75 -51.75 -3.75 C-51.42 0.21 -51.09 4.17 -50.75 8.25 C-49.3578125 6.703125 -49.3578125 6.703125 -47.9375 5.125 C-34.94658238 -7.91894178 -15.52928395 -9.66381397 0 0 Z " fill="#F43228" transform="translate(530.75,469.75)"/>
<path d="M0 0 C8.25 0 16.5 0 25 0 C30.21964608 11.86848097 34.29255616 24.12034438 38.5 36.375 C39.98830255 40.69575436 41.47837565 45.01589738 42.96875 49.3359375 C43.32267822 50.36193054 43.67660645 51.38792358 44.04125977 52.44500732 C46.00301373 58.127142 47.96590473 63.80875852 49.96875 69.4765625 C50.34451172 70.54213379 50.72027344 71.60770508 51.10742188 72.70556641 C51.79531246 74.9295242 51.79531246 74.9295242 53 76 C61.47898021 50.71335489 69.78892887 25.37485854 78 0 C86.58 0 95.16 0 104 0 C102.14184465 6.19385115 100.28162101 12.19892843 97.98828125 18.21484375 C97.56011108 19.35106422 97.56011108 19.35106422 97.12329102 20.51023865 C96.18932406 22.98712264 95.25087791 25.46228417 94.3125 27.9375 C92.96729883 31.50075526 91.62439257 35.0648746 90.28125 38.62890625 C89.9341951 39.54881348 89.5871402 40.4687207 89.22956848 41.41650391 C86.66555126 48.21736047 84.1237955 55.02628126 81.59375 61.83984375 C81.0540583 63.29308296 81.0540583 63.29308296 80.50346375 64.77568054 C79.09605227 68.56677615 77.68925745 72.3580982 76.28433228 76.15011597 C66.53254808 102.46745192 66.53254808 102.46745192 65 104 C63.00035018 104.08758003 60.9976389 104.10696576 58.99609375 104.09765625 C57.17368164 104.09282227 57.17368164 104.09282227 55.31445312 104.08789062 C54.03505859 104.07951172 52.75566406 104.07113281 51.4375 104.0625 C50.15423828 104.05798828 48.87097656 104.05347656 47.54882812 104.04882812 C44.36583978 104.03699545 41.18294238 104.02051068 38 104 C34.85563348 96.61153675 31.91521611 89.19848879 29.25 81.625 C24.72746066 68.92035428 20.05668296 56.27172612 15.375 43.625 C15.01378052 42.64911926 14.65256104 41.67323853 14.28039551 40.66778564 C13.56636803 38.73889108 12.85225753 36.81002724 12.13806152 34.88119507 C11.44184312 33.00048048 10.74595588 31.11964326 10.05041504 29.23867798 C8.34697198 24.632691 6.63827464 20.02879369 4.91894531 15.42871094 C4.27147978 13.68945484 3.62401864 11.9501971 2.9765625 10.2109375 C2.67495209 9.40862701 2.37334167 8.60631653 2.06259155 7.7796936 C0 2.22581197 0 2.22581197 0 0 Z " fill="#F33228" transform="translate(553,466)"/>
<path d="M0 0 C1.77537895 0.01665459 1.77537895 0.01665459 3.58662415 0.03364563 C4.24055145 0.0329155 4.89447876 0.03218536 5.56822205 0.03143311 C7.72795314 0.03491448 9.88552235 0.073794 12.0448761 0.11299133 C13.54273297 0.12231769 15.04060509 0.12943464 16.53848267 0.13442993 C20.47951931 0.15351425 24.41963346 0.20262571 28.36030579 0.25794983 C32.38198873 0.30911241 36.40382085 0.33193747 40.42573547 0.35713196 C48.31613262 0.41074454 56.20578021 0.49607295 64.09565735 0.60127258 C64.1651335 9.02437599 64.21845622 17.4473599 64.25109386 25.8706789 C64.26675744 29.78187485 64.28800798 33.69287492 64.32197571 37.60395813 C64.35454503 41.37759517 64.37250515 45.15104368 64.38028908 48.92481041 C64.385837 50.36535295 64.39667071 51.80588504 64.41284752 53.24634743 C64.43458693 55.26209598 64.43588245 57.27803379 64.43623352 59.29389954 C64.44622627 61.01598381 64.44622627 61.01598381 64.4564209 62.77285767 C64.09565735 65.60127258 64.09565735 65.60127258 62.95986938 67.4702301 C60.24585981 69.11685616 58.09059362 68.99008408 54.9276886 69.00532532 C53.65627014 69.01800949 52.38485168 69.03069366 51.0749054 69.04376221 C49.68598773 69.04171091 48.29707118 69.038723 46.90815735 69.03486633 C45.48473358 69.03942678 44.06131202 69.04473195 42.63789368 69.05075073 C39.6552994 69.05968582 36.67297282 69.05725403 33.69038391 69.0473175 C29.86667684 69.03582054 26.04389225 69.056047 22.2203064 69.08523464 C19.28118515 69.10357249 16.34228604 69.10330924 13.40312195 69.09759712 C11.99329839 69.09744364 10.58346002 69.10351006 9.1736908 69.1158886 C7.20372059 69.13075002 5.23359874 69.11751668 3.2636261 69.10298157 C1.58176208 69.10273232 1.58176208 69.10273232 -0.13407898 69.10247803 C-2.90434265 68.60127258 -2.90434265 68.60127258 -4.76557922 66.93183899 C-6.17353053 64.05035901 -6.28505484 62.01647608 -6.29252625 58.8105011 C-6.30198273 57.64571732 -6.31143921 56.48093353 -6.32118225 55.28085327 C-6.31510956 54.02663071 -6.30903687 52.77240814 -6.30278015 51.48017883 C-6.30565033 50.18813034 -6.30852051 48.89608185 -6.31147766 47.56488037 C-6.31589567 44.83202843 -6.30948832 42.09947108 -6.29545593 39.36665344 C-6.27838078 35.87173481 -6.28819709 32.37750823 -6.30617332 28.88261509 C-6.31965257 25.54008163 -6.31019986 22.19773193 -6.30278015 18.85517883 C-6.30885284 17.6029805 -6.31492554 16.35078217 -6.32118225 15.06063843 C-6.31172577 13.89270248 -6.30226929 12.72476654 -6.29252625 11.5214386 C-6.29013947 10.49647781 -6.28775269 9.47151703 -6.28529358 8.41549683 C-5.66524256 3.83495247 -4.77766025 0.98909683 0 0 Z " fill="#F33328" transform="translate(170.9043426513672,479.3987274169922)"/>
<path d="M0 0 C1.27141846 -0.00938095 2.54283691 -0.0187619 3.8527832 -0.02842712 C5.24170605 -0.01794911 6.63062242 -0.00658014 8.01953125 0.00561523 C9.44295322 0.00546027 10.86637563 0.00397179 12.28979492 0.00120544 C15.272488 -0.00017913 18.25470055 0.01238831 21.23730469 0.03515625 C25.06091032 0.06354181 28.88371748 0.06080472 32.7073822 0.04806614 C35.64651308 0.04111167 38.58545934 0.04889544 41.52456665 0.06132317 C42.93436983 0.06583998 44.34419282 0.06617245 45.7539978 0.06225777 C47.72405256 0.05934819 49.69410363 0.07800316 51.6640625 0.09765625 C52.78530518 0.10305923 53.90654785 0.10846222 55.06176758 0.11402893 C57.83203125 0.50170898 57.83203125 0.50170898 59.69425964 1.68261719 C61.27400606 4.20834707 61.20622769 6.03953977 61.2043457 9.01123047 C61.21368889 10.70329872 61.21368889 10.70329872 61.22322083 12.42955017 C61.21401108 13.64832352 61.20480133 14.86709686 61.1953125 16.12280273 C61.19606026 17.99996727 61.19606026 17.99996727 61.19682312 19.91505432 C61.19448043 22.56412384 61.18631449 25.21239692 61.16821289 27.86132812 C61.14554871 31.25201193 61.14497771 34.64224988 61.15173054 38.03298855 C61.15588184 41.27129338 61.14389239 44.5095195 61.1328125 47.74780273 C61.13372391 48.96455185 61.13463531 50.18130096 61.13557434 51.43492126 C61.12604233 52.56611893 61.11651031 53.69731659 61.10668945 54.86279297 C61.09977837 56.35479469 61.09977837 56.35479469 61.09272766 57.87693787 C60.82322447 60.5903783 60.30780502 62.22368409 58.83203125 64.50170898 C56.13154277 65.85195322 54.00063462 65.65127586 50.97705078 65.67871094 C49.13471359 65.69796379 49.13471359 65.69796379 47.25515747 65.71760559 C45.90839032 65.7257724 44.56161862 65.73321624 43.21484375 65.73999023 C42.53765163 65.74406576 41.86045952 65.74814129 41.16274643 65.75234032 C37.57904109 65.77319717 33.995374 65.78750099 30.41162109 65.796875 C26.71025013 65.80794418 23.00947959 65.84234991 19.308321 65.8820467 C16.46185182 65.90819035 13.61552628 65.91656471 10.7689476 65.92015648 C9.40457983 65.92502767 8.0402187 65.93665704 6.67596817 65.95519447 C4.76605956 65.97953491 2.85585912 65.97620611 0.94580078 65.97167969 C-0.1407077 65.97754593 -1.22721619 65.98341217 -2.34664917 65.98945618 C-5.92080942 65.37155857 -7.07861618 64.44342693 -9.16796875 61.50170898 C-9.66917419 58.88366699 -9.66917419 58.88366699 -9.66967773 55.87866211 C-9.67905869 54.75069214 -9.68843964 53.62272217 -9.69810486 52.46057129 C-9.68687088 51.24695923 -9.6756369 50.03334717 -9.6640625 48.78295898 C-9.66624535 46.90791687 -9.66624535 46.90791687 -9.66847229 44.99499512 C-9.666812 42.35165454 -9.65732188 39.70975221 -9.63452148 37.06665039 C-9.60613603 33.68369407 -9.6088752 30.30164037 -9.6216116 26.91861725 C-9.63025016 23.68583987 -9.61511867 20.45320813 -9.6015625 17.22045898 C-9.60449814 16.00684692 -9.60743378 14.79323486 -9.61045837 13.54284668 C-9.5977742 12.41487671 -9.58509003 11.28690674 -9.57202148 10.12475586 C-9.5666185 9.13310425 -9.56121552 8.14145264 -9.5556488 7.11975098 C-8.6441242 0.96413461 -5.86074456 0.00086856 0 0 Z " fill="#F43328" transform="translate(174.16796875,561.498291015625)"/>
<path d="M0 0 C7.51132765 -0.0758691 15.02255704 -0.12852324 22.53417969 -0.16479492 C25.09118339 -0.1799107 27.64816106 -0.20040366 30.20507812 -0.22631836 C33.87376317 -0.26257862 37.5421064 -0.27969836 41.2109375 -0.29296875 C42.35992523 -0.30845261 43.50891296 -0.32393646 44.69271851 -0.33988953 C46.28414169 -0.34022942 46.28414169 -0.34022942 47.90771484 -0.34057617 C49.31336197 -0.35056892 49.31336197 -0.35056892 50.74740601 -0.36076355 C51.49076202 -0.24171158 52.23411804 -0.12265961 53 0 C55.32017633 3.48026449 55.26165705 4.87281862 55.29052734 8.984375 C55.30328705 10.21575195 55.31604675 11.44712891 55.32919312 12.71582031 C55.3322501 14.06054528 55.33447822 15.40527235 55.3359375 16.75 C55.34236413 18.12858215 55.34909239 19.50716292 55.35610962 20.88574219 C55.36808161 23.77412073 55.37179041 26.66237965 55.37060547 29.55078125 C55.37040198 33.25338763 55.39773352 36.95522896 55.43214989 40.65765381 C55.45437475 43.50410493 55.45844443 46.3503704 55.45738602 49.19689941 C55.45974752 50.5620793 55.46860206 51.92726388 55.48405075 53.2923584 C55.50362257 55.20001363 55.49537289 57.10789319 55.48583984 59.015625 C55.48868988 60.10133789 55.49153992 61.18705078 55.49447632 62.30566406 C55 65 55 65 53.27616882 66.85075378 C50.66445198 68.16941946 49.01173202 68.3744675 46.09545898 68.37231445 C45.12442734 68.37854324 44.15339569 68.38477203 43.15293884 68.39118958 C41.59030052 68.37737495 41.59030052 68.37737495 39.99609375 68.36328125 C38.38384666 68.36402901 38.38384666 68.36402901 36.73902893 68.36479187 C34.46865997 68.36245285 32.19828834 68.35273448 29.92797852 68.33618164 C26.44719343 68.31256577 22.96717309 68.31562514 19.48632812 68.32226562 C17.28124542 68.31668963 15.07616595 68.30958024 12.87109375 68.30078125 C11.30541908 68.30214836 11.30541908 68.30214836 9.70811462 68.30354309 C8.25629539 68.28924507 8.25629539 68.28924507 6.77514648 68.2746582 C5.9233934 68.27005081 5.07164032 68.26544342 4.19407654 68.26069641 C2 68 2 68 -1 66 C-2.04049067 62.87852799 -2.13288753 60.68933873 -2.14526367 57.41455078 C-2.15164352 56.26971222 -2.15802338 55.12487366 -2.16459656 53.94534302 C-2.16570938 52.70783295 -2.1668222 51.47032288 -2.16796875 50.1953125 C-2.17129715 48.9240451 -2.17462555 47.65277771 -2.17805481 46.34298706 C-2.18312207 43.65131129 -2.18589526 40.95973646 -2.18530273 38.26806641 C-2.1852012 34.82596014 -2.19884614 31.38406057 -2.21607494 27.94200325 C-2.22989637 24.65144745 -2.22928446 21.36089339 -2.23046875 18.0703125 C-2.23765427 16.83685089 -2.24483978 15.60338928 -2.25224304 14.33255005 C-2.24916641 13.18140717 -2.24608978 12.03026428 -2.24291992 10.84423828 C-2.24434494 9.83402618 -2.24576996 8.82381409 -2.24723816 7.7829895 C-1.98627674 4.84552675 -1.22979871 2.66576747 0 0 Z " fill="#F33228" transform="translate(250,480)"/>
<path d="M0 0 C0 7.92 0 15.84 0 24 C-3.8671875 23.87625 -3.8671875 23.87625 -7.8125 23.75 C-15.243522 23.64615915 -21.24615704 24.71304978 -28 28 C-28.73476563 28.33 -29.46953125 28.66 -30.2265625 29 C-32.85288382 30.48092127 -33.07411522 32.16062 -34 35 C-34.50378174 36.08345703 -35.00756348 37.16691406 -35.52661133 38.28320312 C-37.83053967 44.43912218 -37.48017352 50.85254231 -37.51171875 57.34375 C-37.52859073 58.72238742 -37.54674432 60.1010097 -37.56611633 61.47961426 C-37.61334975 65.08308171 -37.64333039 68.68648774 -37.66955566 72.29016113 C-37.69949693 75.97741828 -37.74598012 79.66446428 -37.79101562 83.3515625 C-37.87674496 90.56762092 -37.9426922 97.78364964 -38 105 C-45.92 105 -53.84 105 -62 105 C-62 70.68 -62 36.36 -62 1 C-54.08 1 -46.16 1 -38 1 C-37.67 5.95 -37.34 10.9 -37 16 C-35.68 14.02 -34.36 12.04 -33 10 C-23.08206949 -0.73053406 -13.74472449 -0.32214198 0 0 Z " fill="#F43328" transform="translate(944,465)"/>
<path d="M0 0 C7.69831871 6.15865496 12.85199239 14.29825668 14.05078125 24.22265625 C14.37181843 33.26238726 11.20894639 41.54091498 5.5078125 48.53125 C-0.59884993 54.72233634 -7.56707115 56.79553159 -16 57.625 C-23.65610108 57.38386296 -31.16442694 54.21111512 -36.69140625 48.94921875 C-43.88743175 40.77618718 -45.68990552 32.44975373 -45.49609375 21.6875 C-44.72766869 13.12782843 -40.2655632 7.08970778 -34.1875 1.25 C-23.39960586 -7.11612198 -11.55399802 -6.34337146 0 0 Z " fill="#0E0F14" transform="translate(727.1875,491.75)"/>
<path d="M0 0 C4.2181424 -0.06889888 8.43433095 -0.12861776 12.65258789 -0.16479492 C14.08722552 -0.17987589 15.52181708 -0.2003438 16.95629883 -0.22631836 C19.01915859 -0.26273437 21.08140858 -0.27973243 23.14453125 -0.29296875 C25.00621948 -0.31653442 25.00621948 -0.31653442 26.90551758 -0.34057617 C30 0 30 0 31.90356445 1.36987305 C33.42657002 3.63420352 33.39918555 5.29121895 33.375 8 C33.38660156 9.299375 33.38660156 9.299375 33.3984375 10.625 C33 13 33 13 31.92578125 14.80078125 C28.93710907 16.66188137 26.28231073 16.28299938 22.8125 16.1875 C20.90404297 16.14689453 20.90404297 16.14689453 18.95703125 16.10546875 C17.49330078 16.05326172 17.49330078 16.05326172 16 16 C16.01571045 16.7113208 16.0314209 17.4226416 16.04760742 18.15551758 C16.10991915 21.37443104 16.14897867 24.59321768 16.1875 27.8125 C16.21263672 28.93205078 16.23777344 30.05160156 16.26367188 31.20507812 C16.27333984 32.27822266 16.28300781 33.35136719 16.29296875 34.45703125 C16.3086792 35.44678955 16.32438965 36.43654785 16.34057617 37.45629883 C16 40 16 40 14.78710938 41.828125 C12.43103638 43.3730909 10.91874439 43.34397717 8.11328125 43.29296875 C7.17548828 43.28330078 6.23769531 43.27363281 5.27148438 43.26367188 C4.29501953 43.23853516 3.31855469 43.21339844 2.3125 43.1875 C1.32443359 43.17396484 0.33636719 43.16042969 -0.68164062 43.14648438 C-3.12164231 43.11112203 -5.56054719 43.06177033 -8 43 C-7.98952637 43.62567871 -7.97905273 44.25135742 -7.96826172 44.89599609 C-7.92676809 47.7222901 -7.90069527 50.54852011 -7.875 53.375 C-7.84986328 54.85226562 -7.84986328 54.85226562 -7.82421875 56.359375 C-7.81777344 57.30039062 -7.81132812 58.24140625 -7.8046875 59.2109375 C-7.79421387 60.08024902 -7.78374023 60.94956055 -7.77294922 61.84521484 C-8 64 -8 64 -10 66 C-12.75 66.265625 -12.75 66.265625 -16 66.25 C-17.60875 66.25773438 -17.60875 66.25773438 -19.25 66.265625 C-22 66 -22 66 -24 64 C-24.17517747 61.27514272 -24.23149133 58.65340638 -24.1953125 55.9296875 C-24.1924826 55.13345978 -24.18965271 54.33723206 -24.18673706 53.51687622 C-24.1755264 50.96943237 -24.15042062 48.42233789 -24.125 45.875 C-24.11497133 44.14974465 -24.10584528 42.42448381 -24.09765625 40.69921875 C-24.07728418 36.46590238 -24.03813823 32.23334305 -24 28 C-16.08 28 -8.16 28 0 28 C0 18.76 0 9.52 0 0 Z " fill="#EE3228" transform="translate(272,561)"/>
<path d="M0 0 C12.54 0 25.08 0 38 0 C38 12.21 38 24.42 38 37 C25.46 37 12.92 37 0 37 C0 24.79 0 12.58 0 0 Z " fill="#0D0F14" transform="translate(181,495)"/>
<path d="M0 0 C12.54 0 25.08 0 38 0 C38 11.55 38 23.1 38 35 C25.46 35 12.92 35 0 35 C0 23.45 0 11.9 0 0 Z " fill="#0E1014" transform="translate(181,577)"/>
<path d="M0 0 C8.25 0 16.5 0 25 0 C25 12.21 25 24.42 25 37 C16.75 37 8.5 37 0 37 C0 24.79 0 12.58 0 0 Z " fill="#0C0F14" transform="translate(264,495)"/>
<path d="M0 0 C0.11586755 4.43728151 0.18714058 8.87417591 0.25 13.3125 C0.28351563 14.57513672 0.31703125 15.83777344 0.3515625 17.13867188 C0.36445313 18.34716797 0.37734375 19.55566406 0.390625 20.80078125 C0.41157227 21.91622314 0.43251953 23.03166504 0.45410156 24.1809082 C0 27 0 27 -1.63085938 28.86914062 C-4.68028235 30.32471845 -6.92145067 30.34073419 -10.296875 30.29296875 C-11.50214844 30.28330078 -12.70742187 30.27363281 -13.94921875 30.26367188 C-15.20347656 30.23853516 -16.45773438 30.21339844 -17.75 30.1875 C-19.01972656 30.17396484 -20.28945312 30.16042969 -21.59765625 30.14648438 C-24.73219844 30.1111324 -27.86588545 30.06178248 -31 30 C-25.95678592 23.86988634 -20.43836272 18.25218459 -14.83056641 12.64526367 C-13.23440256 11.04688087 -11.64644686 9.44061854 -10.05859375 7.83398438 C-9.04475921 6.81722113 -8.03045365 5.80092728 -7.015625 4.78515625 C-6.10071289 3.86613525 -5.18580078 2.94711426 -4.24316406 2.00024414 C-2 0 -2 0 0 0 Z " fill="#0B0F13" transform="translate(133,393)"/>
<path d="M0 0 C19.8 0 39.6 0 60 0 C60 7.59 60 15.18 60 23 C31.62 23 3.24 23 -26 23 C-26 17.39 -26 11.78 -26 6 C-25.01 6.495 -25.01 6.495 -24 7 C-24 11.62 -24 16.24 -24 21 C3.39 21 30.78 21 59 21 C59 14.4 59 7.8 59 1 C39.53 1 20.06 1 0 1 C0 0.67 0 0.34 0 0 Z " fill="#E23328" transform="translate(378,547)"/>
<path d="M0 0 C12.54 0 25.08 0 38 0 C38 11.55 38 23.1 38 35 C25.46 35 12.92 35 0 35 C0 23.45 0 11.9 0 0 Z M2 2 C2 12.23 2 22.46 2 33 C13.22 33 24.44 33 36 33 C36.33 22.77 36.66 12.54 37 2 C25.45 2 13.9 2 2 2 Z " fill="#221014" transform="translate(181,577)"/>
<path d="M0 0 C0 8.91 0 17.82 0 27 C-3.375 22.5 -3.375 22.5 -3.51171875 18.890625 C-3.56489258 17.75947266 -3.56489258 17.75947266 -3.61914062 16.60546875 C-3.64169922 15.82816406 -3.66425781 15.05085938 -3.6875 14.25 C-3.73874023 13.06083984 -3.73874023 13.06083984 -3.79101562 11.84765625 C-3.87319104 9.89892496 -3.93828045 7.94948638 -4 6 C-4.55461914 6.55461914 -5.10923828 7.10923828 -5.68066406 7.68066406 C-11.45377604 13.45377604 -17.22688802 19.22688802 -23 25 C-24.00691895 26.09973145 -24.00691895 26.09973145 -25.03417969 27.22167969 C-27.0836189 29.07564332 -28.30130172 29.61447167 -31 30 C-25.95678592 23.86988634 -20.43836272 18.25218459 -14.83056641 12.64526367 C-13.23440256 11.04688087 -11.64644686 9.44061854 -10.05859375 7.83398438 C-9.04475921 6.81722113 -8.03045365 5.80092728 -7.015625 4.78515625 C-6.10071289 3.86613525 -5.18580078 2.94711426 -4.24316406 2.00024414 C-2 0 -2 0 0 0 Z " fill="#211014" transform="translate(133,393)"/>
<path d="M0 0 C8.25 0 16.5 0 25 0 C25.33 1.65 25.66 3.3 26 5 C25.34 4.34 24.68 3.68 24 3 C21.6754661 2.62948007 21.6754661 2.62948007 18.9921875 2.5859375 C18.00605469 2.54726563 17.01992188 2.50859375 16.00390625 2.46875 C14.97136719 2.4378125 13.93882812 2.406875 12.875 2.375 C11.83472656 2.33632813 10.79445313 2.29765625 9.72265625 2.2578125 C7.14861689 2.16335234 4.57458845 2.07778786 2 2 C1.67 2.66 1.34 3.32 1 4 C0.67 2.68 0.34 1.36 0 0 Z " fill="#E33227" transform="translate(553,466)"/>
<path d="M0 0 C8.25 0 16.5 0 25 0 C24.67 0.99 24.34 1.98 24 3 C16.74 2.67 9.48 2.34 2 2 C1.67 2.99 1.34 3.98 1 5 C0.67 3.35 0.34 1.7 0 0 Z " fill="#E33227" transform="translate(767,466)"/>
<path d="M0 0 C8.25 0 16.5 0 25 0 C25 3.63 25 7.26 25 11 C26.32 10.34 27.64 9.68 29 9 C27.68197635 12.64991166 26.40785992 14.7895201 24 18 C24 12.39 24 6.78 24 1 C16.08 1 8.16 1 0 1 C0 0.67 0 0.34 0 0 Z " fill="#03090E" transform="translate(882,465)"/>
<path d="M0 0 C8.25 0 16.5 0 25 0 C24.67 1.65 24.34 3.3 24 5 C23.67 4.01 23.34 3.02 23 2 C15.41 2 7.82 2 0 2 C0 1.34 0 0.68 0 0 Z " fill="#E43227" transform="translate(845,466)"/>
<path d="M0 0 C-1.55002747 3.88397689 -4.00476621 6.02979619 -7.125 8.75 C-8.49011719 9.94882812 -8.49011719 9.94882812 -9.8828125 11.171875 C-10.58148438 11.77515625 -11.28015625 12.3784375 -12 13 C-12.66 12.67 -13.32 12.34 -14 12 C-12.04761147 9.99387601 -10.08862178 7.99507567 -8.125 6 C-7.29162109 5.14148438 -7.29162109 5.14148438 -6.44140625 4.265625 C-2.2265625 0 -2.2265625 0 0 0 Z " fill="#E33328" transform="translate(136,368)"/>
</svg>
